<svg width="24" height="24" viewBox="0 0 24 24" fill="none" xmlns="http://www.w3.org/2000/svg">
<path d="M12.4211 14.1596V15.9196C11.6589 15.6501 10.8432 15.5675 10.0424 15.6786C9.24171 15.7897 8.47933 16.0913 7.81931 16.5581C7.1593 17.0249 6.62092 17.6432 6.2494 18.3612C5.87788 19.0792 5.68406 19.8758 5.68421 20.6842L4 20.6834C3.99974 19.6551 4.23488 18.6403 4.68741 17.717C5.13994 16.7936 5.79784 15.986 6.61071 15.3562C7.42358 14.7264 8.36983 14.2911 9.37697 14.0835C10.3841 13.8759 11.4254 13.9017 12.4211 14.1587V14.1596ZM10.7368 13.1053C7.94526 13.1053 5.68421 10.8442 5.68421 8.05263C5.68421 5.26105 7.94526 3 10.7368 3C13.5284 3 15.7895 5.26105 15.7895 8.05263C15.7895 10.8442 13.5284 13.1053 10.7368 13.1053ZM10.7368 11.4211C12.5979 11.4211 14.1053 9.91368 14.1053 8.05263C14.1053 6.19158 12.5979 4.68421 10.7368 4.68421C8.87579 4.68421 7.36842 6.19158 7.36842 8.05263C7.36842 9.91368 8.87579 11.4211 10.7368 11.4211ZM15.7895 16.4737V13.9474H17.4737V16.4737H20V18.1579H17.4737V20.6842H15.7895V18.1579H13.2632V16.4737H15.7895Z" fill="#010F07"/>
</svg>
