<svg width="24" height="24" viewBox="0 0 24 24" fill="none" xmlns="http://www.w3.org/2000/svg">
<path d="M16.3655 6.41528C14.4755 6.41528 13.6768 7.31716 12.3605 7.31716C11.011 7.31716 9.98159 6.42185 8.34378 6.42185C6.74066 6.42185 5.03113 7.4006 3.9455 9.06794C2.42113 11.4192 2.67988 15.8475 5.14878 19.62C6.03191 20.9704 7.21128 22.485 8.75816 22.5014H8.78628C10.1307 22.5014 10.53 21.6211 12.3802 21.6108H12.4083C14.2308 21.6108 14.5964 22.4962 15.9352 22.4962H15.9633C17.5102 22.4798 18.7528 20.8017 19.636 19.4564C20.2716 18.4889 20.5078 18.0033 20.9953 16.9087C17.4239 15.5531 16.8502 10.4901 20.3822 8.54903C19.3041 7.19903 17.7891 6.41716 16.3608 6.41716L16.3655 6.41528Z" fill="#010F07"/>
<path d="M15.9492 1.5C14.8242 1.57641 13.5117 2.29266 12.743 3.22781C12.0455 4.07531 11.4717 5.3325 11.6967 6.55172H11.7867C12.9848 6.55172 14.2111 5.83031 14.9273 4.90594C15.6173 4.02609 16.1405 2.77922 15.9492 1.5Z" fill="#010F07"/>
</svg>
