<svg width="24" height="24" viewBox="0 0 24 24" fill="none" xmlns="http://www.w3.org/2000/svg">
<path d="M20 12C19.9998 10.2169 19.4039 8.48494 18.3069 7.07919C17.2099 5.67345 15.6747 4.67448 13.9451 4.24094C12.2155 3.80739 10.3906 3.96411 8.76028 4.68621C7.12992 5.40831 5.78753 6.65439 4.94629 8.22659C4.10504 9.79879 3.81316 11.607 4.11699 13.364C4.42083 15.1211 5.30296 16.7262 6.62331 17.9246C7.94366 19.1231 9.62653 19.846 11.4047 19.9787C13.1829 20.1114 14.9544 19.6462 16.438 18.657L17.548 20.321C15.9062 21.4187 13.975 22.0032 12 22C6.477 22 2 17.523 2 12C2 6.477 6.477 2 12 2C17.523 2 22 6.477 22 12V13.5C22.0001 14.2488 21.7601 14.9778 21.3152 15.5801C20.8703 16.1823 20.244 16.626 19.5283 16.846C18.8126 17.066 18.0453 17.0507 17.3389 16.8023C16.6326 16.5539 16.0245 16.0855 15.604 15.466C14.9366 16.16 14.083 16.6465 13.1457 16.8671C12.2085 17.0877 11.2275 17.033 10.3206 16.7096C9.41366 16.3861 8.61943 15.8077 8.03331 15.0438C7.44718 14.2799 7.09408 13.363 7.01644 12.4033C6.9388 11.4436 7.13991 10.4819 7.59562 9.63367C8.05133 8.78549 8.74225 8.08692 9.58537 7.6219C10.4285 7.15688 11.3879 6.94519 12.3485 7.01227C13.309 7.07934 14.2297 7.42232 15 8H17V13.5C17 13.8978 17.158 14.2794 17.4393 14.5607C17.7206 14.842 18.1022 15 18.5 15C18.8978 15 19.2794 14.842 19.5607 14.5607C19.842 14.2794 20 13.8978 20 13.5V12ZM12 9C11.2044 9 10.4413 9.31607 9.87868 9.87868C9.31607 10.4413 9 11.2044 9 12C9 12.7956 9.31607 13.5587 9.87868 14.1213C10.4413 14.6839 11.2044 15 12 15C12.7956 15 13.5587 14.6839 14.1213 14.1213C14.6839 13.5587 15 12.7956 15 12C15 11.2044 14.6839 10.4413 14.1213 9.87868C13.5587 9.31607 12.7956 9 12 9Z" fill="#010F07"/>
</svg>
