<svg width="24" height="24" viewBox="0 0 24 24" fill="none" xmlns="http://www.w3.org/2000/svg">
<g clip-path="url(#clip0_1016_38767)">
<path d="M4.125 0H19.875C20.1734 0 20.4595 0.118526 20.6705 0.329505C20.8815 0.540483 21 0.826631 21 1.125V22.6609C21.0001 22.7615 20.9733 22.8602 20.9223 22.9469C20.8712 23.0336 20.7979 23.105 20.7099 23.1537C20.6219 23.2024 20.5225 23.2267 20.4219 23.2239C20.3214 23.2211 20.2234 23.1914 20.1382 23.1379L12 18.0338L3.86175 23.1367C3.77666 23.1902 3.67881 23.2199 3.57836 23.2227C3.47792 23.2256 3.37855 23.2014 3.29058 23.1529C3.20262 23.1043 3.12927 23.033 3.07817 22.9465C3.02707 22.86 3.00007 22.7614 3 22.6609V1.125C3 0.826631 3.11853 0.540483 3.32951 0.329505C3.54048 0.118526 3.82663 0 4.125 0Z" fill="#010F07"/>
</g>
<defs>
<clipPath id="clip0_1016_38767">
<rect width="24" height="24" fill="white"/>
</clipPath>
</defs>
</svg>
