<svg width="24" height="24" viewBox="0 0 24 24" fill="none" xmlns="http://www.w3.org/2000/svg">
<g clip-path="url(#clip0_1039_30894)">
<path d="M9.6 5H14.4L16 6.6H19.2C19.4122 6.6 19.6157 6.68429 19.7657 6.83431C19.9157 6.98434 20 7.18783 20 7.4V18.6C20 18.8122 19.9157 19.0157 19.7657 19.1657C19.6157 19.3157 19.4122 19.4 19.2 19.4H4.8C4.58783 19.4 4.38434 19.3157 4.23431 19.1657C4.08429 19.0157 4 18.8122 4 18.6V7.4C4 7.18783 4.08429 6.98434 4.23431 6.83431C4.38434 6.68429 4.58783 6.6 4.8 6.6H8L9.6 5ZM12 17.8C13.273 17.8 14.4939 17.2943 15.3941 16.3941C16.2943 15.4939 16.8 14.273 16.8 13C16.8 11.727 16.2943 10.5061 15.3941 9.60589C14.4939 8.70571 13.273 8.2 12 8.2C10.727 8.2 9.50606 8.70571 8.60589 9.60589C7.70571 10.5061 7.2 11.727 7.2 13C7.2 14.273 7.70571 15.4939 8.60589 16.3941C9.50606 17.2943 10.727 17.8 12 17.8ZM12 16.2C11.1513 16.2 10.3374 15.8629 9.73726 15.2627C9.13714 14.6626 8.8 13.8487 8.8 13C8.8 12.1513 9.13714 11.3374 9.73726 10.7373C10.3374 10.1371 11.1513 9.8 12 9.8C12.8487 9.8 13.6626 10.1371 14.2627 10.7373C14.8629 11.3374 15.2 12.1513 15.2 13C15.2 13.8487 14.8629 14.6626 14.2627 15.2627C13.6626 15.8629 12.8487 16.2 12 16.2Z" fill="#010F07"/>
</g>
<defs>
<clipPath id="clip0_1039_30894">
<rect width="24" height="24" fill="white"/>
</clipPath>
</defs>
</svg>
