<svg width="24" height="24" viewBox="0 0 24 24" fill="none" xmlns="http://www.w3.org/2000/svg">
<path d="M6.116 20.087C4.84003 19.1599 3.80182 17.9437 3.08639 16.538C2.37097 15.1324 1.99867 13.5772 2 12C2 6.477 6.477 2 12 2C17.523 2 22 6.477 22 12C22.0013 13.5772 21.629 15.1324 20.9136 16.538C20.1982 17.9437 19.16 19.1599 17.884 20.087L16.869 18.348C18.1954 17.3306 19.1698 15.9232 19.6552 14.3236C20.1407 12.724 20.1129 11.0125 19.5757 9.42947C19.0385 7.84647 18.0189 6.47153 16.6601 5.49776C15.3013 4.524 13.6717 4.00034 12 4.00034C10.3283 4.00034 8.69867 4.524 7.3399 5.49776C5.98114 6.47153 4.96154 7.84647 4.42434 9.42947C3.88714 11.0125 3.85932 12.724 4.34478 14.3236C4.83024 15.9232 5.80461 17.3306 7.131 18.348L6.116 20.087ZM8.15 16.602C7.20503 15.8114 6.52634 14.7491 6.20615 13.5594C5.88597 12.3696 5.9398 11.1102 6.36035 9.9521C6.78089 8.79403 7.54775 7.7935 8.55675 7.08644C9.56574 6.37939 10.7679 6.0001 12 6.0001C13.2321 6.0001 14.4343 6.37939 15.4433 7.08644C16.4522 7.7935 17.2191 8.79403 17.6397 9.9521C18.0602 11.1102 18.114 12.3696 17.7938 13.5594C17.4737 14.7491 16.795 15.8114 15.85 16.602L14.82 14.836C15.3818 14.2775 15.7651 13.5649 15.9214 12.7883C16.0777 12.0117 15.9998 11.2062 15.6978 10.4739C15.3957 9.74164 14.8831 9.11552 14.2248 8.67494C13.5664 8.23437 12.7921 7.99917 12 7.99917C11.2079 7.99917 10.4336 8.23437 9.77525 8.67494C9.11693 9.11552 8.60426 9.74164 8.30221 10.4739C8.00016 11.2062 7.92234 12.0117 8.07861 12.7883C8.23488 13.5649 8.61821 14.2775 9.18 14.836L8.15 16.602ZM11 13H13V22H11V13Z" fill="#010F07"/>
</svg>
