<svg width="24" height="24" viewBox="0 0 24 24" fill="none" xmlns="http://www.w3.org/2000/svg">
<g clip-path="url(#clip0_1008_23356)">
<path d="M12 10.2225L17.3338 4.88875C17.8246 4.39791 18.6204 4.39791 19.1113 4.88875C19.6021 5.37959 19.6021 6.17541 19.1113 6.66625L13.7775 12L19.1113 17.3338C19.6021 17.8246 19.6021 18.6204 19.1113 19.1113C18.6204 19.6021 17.8246 19.6021 17.3338 19.1113L12 13.7775L6.66625 19.1113C6.1754 19.6021 5.37959 19.6021 4.88875 19.1113C4.39791 18.6204 4.39791 17.8246 4.88875 17.3338L10.2225 12L4.88875 6.66625C4.39791 6.1754 4.39791 5.37959 4.88875 4.88875C5.37959 4.39791 6.17541 4.39791 6.66625 4.88875L12 10.2225Z" fill="#010F07"/>
</g>
<defs>
<clipPath id="clip0_1008_23356">
<rect width="24" height="24" fill="white"/>
</clipPath>
</defs>
</svg>
