<svg width="24" height="24" viewBox="0 0 24 24" fill="none" xmlns="http://www.w3.org/2000/svg">
<g clip-path="url(#clip0_1020_23262)">
<path d="M4 11.655C4.69507 7.86903 8.01294 5 12 5C15.9871 5 19.3042 7.86903 20 11.655C19.3049 15.4409 15.9871 18.3099 12 18.3099C8.01294 18.3099 4.69581 15.4409 4 11.655ZM12 15.3522C12.9806 15.3522 13.921 14.9626 14.6143 14.2693C15.3077 13.5759 15.6972 12.6355 15.6972 11.655C15.6972 10.6744 15.3077 9.734 14.6143 9.04064C13.921 8.34728 12.9806 7.95776 12 7.95776C11.0194 7.95776 10.079 8.34728 9.38569 9.04064C8.69233 9.734 8.3028 10.6744 8.3028 11.655C8.3028 12.6355 8.69233 13.5759 9.38569 14.2693C10.079 14.9626 11.0194 15.3522 12 15.3522ZM12 13.8733C11.4117 13.8733 10.8474 13.6396 10.4314 13.2235C10.0154 12.8075 9.78168 12.2433 9.78168 11.655C9.78168 11.0666 10.0154 10.5024 10.4314 10.0864C10.8474 9.67035 11.4117 9.43664 12 9.43664C12.5883 9.43664 13.1526 9.67035 13.5686 10.0864C13.9846 10.5024 14.2183 11.0666 14.2183 11.655C14.2183 12.2433 13.9846 12.8075 13.5686 13.2235C13.1526 13.6396 12.5883 13.8733 12 13.8733Z" fill="#010F07"/>
</g>
<defs>
<clipPath id="clip0_1020_23262">
<rect width="24" height="24" fill="white"/>
</clipPath>
</defs>
</svg>
