<svg width="24" height="24" viewBox="0 0 24 24" fill="none" xmlns="http://www.w3.org/2000/svg">
<g clip-path="url(#clip0_1020_23261)">
<path d="M6.46899 7.3578L4.15676 5.04631L5.20307 4L19.8432 18.6409L18.7969 19.6865L16.3494 17.2389C15.0489 18.0638 13.5401 18.5007 12 18.4982C8.01294 18.4982 4.69581 15.6292 4 11.8432C4.31798 10.1209 5.18431 8.54748 6.46973 7.3578H6.46899ZM14.0386 14.9282L12.9561 13.8456C12.542 14.0437 12.0767 14.1085 11.6243 14.0311C11.1719 13.9536 10.7546 13.7377 10.4301 13.4132C10.1055 13.0886 9.88962 12.6713 9.81216 12.2189C9.7347 11.7665 9.79949 11.3012 9.9976 10.8871L8.91506 9.8046C8.44456 10.5156 8.23423 11.3673 8.31968 12.2155C8.40513 13.0638 8.78111 13.8564 9.38395 14.4593C9.98679 15.0621 10.7794 15.4381 11.6277 15.5236C12.476 15.609 13.3277 15.3987 14.0386 14.9282ZM9.02302 5.75025C9.9451 5.38793 10.95 5.18828 12 5.18828C15.9871 5.18828 19.3042 8.05731 20 11.8432C19.7734 13.0749 19.2642 14.2372 18.5122 15.2387L15.658 12.3845C15.7428 11.8134 15.6926 11.2303 15.5115 10.6821C15.3305 10.1338 15.0235 9.63558 14.6152 9.2273C14.2069 8.81902 13.7087 8.51204 13.1604 8.33095C12.6122 8.14987 12.0291 8.09971 11.458 8.18449L9.02302 5.75099V5.75025Z" fill="#010F07"/>
</g>
<defs>
<clipPath id="clip0_1020_23261">
<rect width="24" height="24" fill="white"/>
</clipPath>
</defs>
</svg>
