<svg width="24" height="24" viewBox="0 0 24 24" fill="none" xmlns="http://www.w3.org/2000/svg">
<g clip-path="url(#clip0_1020_23178)">
<path d="M24.0001 12.27C24.0001 11.48 23.9286 10.73 23.806 10H12.2607V14.51H18.8712C18.5749 15.99 17.7064 17.24 16.4191 18.09V21.09H20.3628C22.6719 19 24.0001 15.92 24.0001 12.27Z" fill="#4285F4"/>
<path d="M12.2601 24C15.5704 24 18.3392 22.92 20.3622 21.09L16.4184 18.09C15.315 18.81 13.9152 19.25 12.2601 19.25C9.06213 19.25 6.35462 17.14 5.38401 14.29H1.31763V17.38C3.33038 21.3 7.46828 24 12.2601 24Z" fill="#34A853"/>
<path d="M5.38437 14.2899C5.12895 13.5699 4.99612 12.7999 4.99612 11.9999C4.99612 11.1999 5.13916 10.4299 5.38437 9.70988V6.61987H1.318C0.480199 8.23987 0 10.0599 0 11.9999C0 13.9399 0.480199 15.7599 1.318 17.3799L5.38437 14.2899Z" fill="#FBBC05"/>
<path d="M12.2601 4.75C14.0685 4.75 15.6828 5.36001 16.9599 6.55001L20.4541 3.13C18.3392 1.19 15.5704 0 12.2601 0C7.46828 0 3.33038 2.7 1.31763 6.62001L5.384 9.71001C6.35462 6.86001 9.06213 4.75 12.2601 4.75Z" fill="#EA4335"/>
</g>
<defs>
<clipPath id="clip0_1020_23178">
<rect width="24" height="24" fill="white"/>
</clipPath>
</defs>
</svg>
