<svg width="20" height="20" viewBox="0 0 20 20" fill="none" xmlns="http://www.w3.org/2000/svg">
<g clip-path="url(#clip0_1039_31402)">
<path d="M9.75 16.5C6.02198 16.5 3 13.478 3 9.75C3 6.02198 6.02198 3 9.75 3C13.478 3 16.5 6.02198 16.5 9.75C16.5 13.478 13.478 16.5 9.75 16.5ZM9.075 11.775V13.125H10.425V11.775H9.075ZM10.425 10.6646C10.9675 10.5011 11.4332 10.1482 11.7373 9.67018C12.0414 9.19213 12.1637 8.62076 12.0819 8.06011C12.0002 7.49947 11.7197 6.98685 11.2917 6.61561C10.8637 6.24437 10.3166 6.03921 9.75 6.0375C9.20383 6.03746 8.6745 6.2266 8.25203 6.57277C7.82957 6.91894 7.54006 7.40075 7.43272 7.93628L8.75707 8.20155C8.79466 8.01352 8.88486 7.84002 9.0172 7.70125C9.14953 7.56248 9.31855 7.46414 9.50459 7.41768C9.69062 7.37121 9.88603 7.37853 10.0681 7.43878C10.2501 7.49903 10.4113 7.60974 10.5329 7.75801C10.6545 7.90629 10.7314 8.08605 10.7549 8.27637C10.7783 8.46669 10.7472 8.65974 10.6651 8.83307C10.5831 9.0064 10.4536 9.15287 10.2916 9.25545C10.1296 9.35802 9.94175 9.41249 9.75 9.4125C9.57098 9.4125 9.39929 9.48362 9.2727 9.6102C9.14612 9.73679 9.075 9.90848 9.075 10.0875V11.1H10.425V10.6646Z" fill="#010F07"/>
</g>
<defs>
<clipPath id="clip0_1039_31402">
<rect width="20" height="20" fill="white"/>
</clipPath>
</defs>
</svg>
