<svg width="24" height="24" viewBox="0 0 24 24" fill="none" xmlns="http://www.w3.org/2000/svg">
<path d="M22 21.703C22 21.9977 21.8829 22.2803 21.6746 22.4887C21.4662 22.697 21.1836 22.8141 20.8889 22.8141H3.11111C2.81643 22.8141 2.53381 22.697 2.32544 22.4887C2.11706 22.2803 2 21.9977 2 21.703V10.0252C1.99988 9.8559 2.03846 9.68879 2.1128 9.53666C2.18713 9.38453 2.29524 9.2514 2.42889 9.14744L11.3178 2.2341C11.5128 2.08238 11.7529 2 12 2C12.2471 2 12.4872 2.08238 12.6822 2.2341L21.5711 9.14744C21.7048 9.2514 21.8129 9.38453 21.8872 9.53666C21.9615 9.68879 22.0001 9.8559 22 10.0252V21.703ZM6.44445 16.1474V18.3697H17.5556V16.1474H6.44445Z" fill="#010F07"/>
</svg>
