<svg width="16" height="16" viewBox="0 0 16 16" fill="none" xmlns="http://www.w3.org/2000/svg">
<g clip-path="url(#clip0_1039_31404)">
<path d="M8.00012 16C3.58172 16 0.00012207 12.4184 0.00012207 8C0.00012207 3.5816 3.58172 0 8.00012 0C12.4185 0 16.0001 3.5816 16.0001 8C16.0001 12.4184 12.4185 16 8.00012 16ZM6.16812 14.1336C5.37885 12.4595 4.92162 10.6482 4.82172 8.8H1.64972C1.80539 10.0311 2.31526 11.1905 3.11738 12.1374C3.91949 13.0842 4.97933 13.7777 6.16812 14.1336ZM6.42412 8.8C6.54492 10.7512 7.10252 12.584 8.00012 14.2016C8.92198 12.5412 9.46048 10.6956 9.57612 8.8H6.42412ZM14.3505 8.8H11.1785C11.0786 10.6482 10.6214 12.4595 9.83212 14.1336C11.0209 13.7777 12.0808 13.0842 12.8829 12.1374C13.685 11.1905 14.1949 10.0311 14.3505 8.8ZM1.64972 7.2H4.82172C4.92162 5.35183 5.37885 3.54055 6.16812 1.8664C4.97933 2.2223 3.91949 2.9158 3.11738 3.86264C2.31526 4.80947 1.80539 5.96888 1.64972 7.2ZM6.42492 7.2H9.57532C9.45992 5.30448 8.9217 3.45883 8.00012 1.7984C7.07827 3.45876 6.53977 5.30442 6.42412 7.2H6.42492ZM9.83212 1.8664C10.6214 3.54055 11.0786 5.35183 11.1785 7.2H14.3505C14.1949 5.96888 13.685 4.80947 12.8829 3.86264C12.0808 2.9158 11.0209 2.2223 9.83212 1.8664Z" fill="#010F07"/>
</g>
<defs>
<clipPath id="clip0_1039_31404">
<rect width="16" height="16" fill="white"/>
</clipPath>
</defs>
</svg>
