<svg width="20" height="20" viewBox="0 0 20 20" fill="none" xmlns="http://www.w3.org/2000/svg">
<g clip-path="url(#clip0_1039_31401)">
<path d="M15.8279 2.00008H9.28052C8.70302 1.99512 8.14773 2.22235 7.73936 2.63072C7.33099 3.03909 7.10377 3.59438 7.10872 4.17188V6.66204C7.10872 7.10383 7.46686 7.46197 7.90865 7.46197C8.35043 7.46197 8.70857 7.10383 8.70857 6.66204V4.17188C8.70901 3.85618 8.96482 3.60037 9.28052 3.59993H15.8279C15.9806 3.59929 16.1273 3.65968 16.2353 3.76768C16.3433 3.87568 16.4037 4.02234 16.4031 4.17508V15.8268C16.4028 15.979 16.3421 16.1248 16.2342 16.2321C16.1263 16.3394 15.9801 16.3994 15.8279 16.3987H9.28052C8.96482 16.3983 8.70901 16.1425 8.70857 15.8268V13.0166C8.70857 12.5749 8.35043 12.2167 7.90865 12.2167C7.46686 12.2167 7.10872 12.5749 7.10872 13.0166V15.8268C7.1096 17.0259 8.08143 17.9977 9.28052 17.9986H15.8279C17.027 17.9977 17.9988 17.0259 17.9997 15.8268V4.17188C17.9876 2.97749 17.0223 2.01221 15.8279 2.00008Z" fill="#010F07"/>
<path d="M14.1349 10.6223C14.1669 10.6223 14.1669 10.6223 14.1989 10.5903C14.2341 10.5946 14.2694 10.5829 14.2949 10.5583C14.3192 10.555 14.3417 10.5437 14.3589 10.5263C14.3909 10.5263 14.3909 10.4943 14.4229 10.4943C14.5121 10.4366 14.5879 10.3605 14.6453 10.2711C14.6453 10.2391 14.6773 10.2391 14.6773 10.2071C14.6806 10.1828 14.6918 10.1604 14.7093 10.1431C14.7093 10.1111 14.7413 10.0791 14.7413 10.0471C14.7413 10.0151 14.7413 10.0151 14.7733 9.98314C14.8053 9.8789 14.8053 9.76742 14.7733 9.66317C14.7733 9.63118 14.7733 9.63118 14.7413 9.59918C14.7456 9.56399 14.7339 9.52872 14.7093 9.50319C14.7059 9.47891 14.6947 9.45642 14.6773 9.43919C14.6773 9.4072 14.6453 9.4072 14.6453 9.3752C14.6133 9.3432 14.5813 9.27921 14.5493 9.24721L11.6112 6.30909C11.3019 5.99984 10.8005 5.99984 10.4913 6.30909C10.182 6.61834 10.182 7.11973 10.4913 7.42898L12.0591 8.99124H2.79998C2.35531 9.01201 2.00424 9.37642 2.00006 9.82156C1.99746 10.0345 2.0809 10.2395 2.23148 10.3901C2.38206 10.5406 2.58704 10.6241 2.79998 10.6215H14.1349V10.6223Z" fill="#010F07"/>
<path d="M10.43 12.8893L11.8347 11.4846C11.9803 11.3308 12.1828 11.2437 12.3946 11.2437C12.6065 11.2437 12.8089 11.3308 12.9546 11.4846C13.1084 11.6302 13.1955 11.8327 13.1955 12.0445C13.1955 12.2564 13.1084 12.4589 12.9546 12.6045L11.5483 14.0044C11.4027 14.1582 11.2002 14.2453 10.9884 14.2453C10.7765 14.2453 10.5741 14.1582 10.4284 14.0044C10.2763 13.8586 10.1905 13.6571 10.1908 13.4465C10.1911 13.2359 10.2775 13.0345 10.43 12.8893Z" fill="#010F07"/>
</g>
<defs>
<clipPath id="clip0_1039_31401">
<rect width="20" height="20" fill="white"/>
</clipPath>
</defs>
</svg>
