<svg width="20" height="20" viewBox="0 0 20 20" fill="none" xmlns="http://www.w3.org/2000/svg">
<g clip-path="url(#clip0_1039_31403)">
<path d="M9.54204 2.5C8.98884 3.01548 8.54513 3.63711 8.23738 4.32779C7.92963 5.01848 7.76415 5.76407 7.75081 6.5201C7.73747 7.27613 7.87655 8.0271 8.15974 8.72821C8.44293 9.42932 8.86444 10.0662 9.39911 10.6009C9.93379 11.1356 10.5707 11.5571 11.2718 11.8403C11.9729 12.1235 12.7239 12.2625 13.4799 12.2492C14.2359 12.2358 14.9815 12.0704 15.6722 11.7626C16.3629 11.4549 16.9845 11.0112 17.5 10.458C17.2613 14.3881 13.9985 17.5008 10.0083 17.5008C5.86111 17.5008 2.5 14.1396 2.5 9.99325C2.5 6.003 5.61261 2.74024 9.54204 2.5Z" fill="#010F07"/>
</g>
<defs>
<clipPath id="clip0_1039_31403">
<rect width="20" height="20" fill="white"/>
</clipPath>
</defs>
</svg>
