<svg width="24" height="24" viewBox="0 0 24 24" fill="none" xmlns="http://www.w3.org/2000/svg">
<rect x="4" y="4" width="16" height="16" rx="3" fill="#010F07"/>
<path d="M11.3333 11.3334V8.18529C11.3333 7.83756 11.6152 7.55566 11.9629 7.55566C12.3107 7.55566 12.5926 7.83756 12.5926 8.18529V11.3334H15.7407C16.0885 11.3334 16.3704 11.6153 16.3704 11.9631C16.3704 12.3108 16.0885 12.5927 15.7407 12.5927H12.5926V15.7408C12.5926 16.0886 12.3107 16.3705 11.9629 16.3705C11.6152 16.3705 11.3333 16.0886 11.3333 15.7408V12.5927H8.18517C7.83744 12.5927 7.55554 12.3108 7.55554 11.9631C7.55554 11.6153 7.83744 11.3334 8.18517 11.3334H11.3333Z" fill="white"/>
</svg>
