<svg width="24" height="24" viewBox="0 0 24 24" fill="none" xmlns="http://www.w3.org/2000/svg">
<rect width="24" height="24" rx="5" fill="#010F07"/>
<path d="M11 11.0002V6.27794C11 5.75634 11.4229 5.3335 11.9445 5.3335C12.4661 5.3335 12.8889 5.75634 12.8889 6.27794V11.0002H17.6112C18.1328 11.0002 18.5556 11.423 18.5556 11.9446C18.5556 12.4662 18.1328 12.8891 17.6112 12.8891H12.8889V17.6113C12.8889 18.1329 12.4661 18.5557 11.9445 18.5557C11.4229 18.5557 11 18.1329 11 17.6113V12.8891H6.27782C5.75622 12.8891 5.33337 12.4662 5.33337 11.9446C5.33337 11.423 5.75622 11.0002 6.27782 11.0002H11Z" fill="white"/>
</svg>
