<svg width="24" height="24" viewBox="0 0 24 24" fill="none" xmlns="http://www.w3.org/2000/svg">
<g clip-path="url(#clip0_1020_23444)">
<path d="M12 10.5862L16.243 6.34323C16.6335 5.95277 17.2665 5.95277 17.657 6.34323C18.0475 6.7337 18.0475 7.36677 17.657 7.75723L13.414 12.0002L17.657 16.2432C18.0475 16.6337 18.0475 17.2668 17.657 17.6572C17.2665 18.0477 16.6335 18.0477 16.243 17.6572L12 13.4142L7.75699 17.6572C7.36652 18.0477 6.73345 18.0477 6.34299 17.6572C5.95252 17.2668 5.95252 16.6337 6.34299 16.2432L10.586 12.0002L6.34299 7.75723C5.95252 7.36677 5.95252 6.7337 6.34299 6.34323C6.73345 5.95277 7.36652 5.95277 7.75699 6.34323L12 10.5862Z" fill="#010F07"/>
</g>
<defs>
<clipPath id="clip0_1020_23444">
<rect width="24" height="24" fill="white"/>
</clipPath>
</defs>
</svg>
