<svg width="24" height="24" viewBox="0 0 24 24" fill="none" xmlns="http://www.w3.org/2000/svg">
<g clip-path="url(#clip0_1033_23365)">
<path d="M5.6 8.8H18.4V19.2C18.4 19.4122 18.3157 19.6157 18.1657 19.7657C18.0157 19.9157 17.8122 20 17.6 20H6.4C6.18783 20 5.98434 19.9157 5.83431 19.7657C5.68429 19.6157 5.6 19.4122 5.6 19.2V8.8ZM8 6.4V4.8C8 4.58783 8.08429 4.38434 8.23431 4.23431C8.38434 4.08429 8.58783 4 8.8 4H15.2C15.4122 4 15.6157 4.08429 15.7657 4.23431C15.9157 4.38434 16 4.58783 16 4.8V6.4H20V8H4V6.4H8ZM9.6 5.6V6.4H14.4V5.6H9.6ZM9.6 12V16.8H11.2V12H9.6ZM12.8 12V16.8H14.4V12H12.8Z" fill="#010F07"/>
</g>
<defs>
<clipPath id="clip0_1033_23365">
<rect width="24" height="24" fill="white"/>
</clipPath>
</defs>
</svg>
